<svg width="70" height="59" viewBox="0 0 70 59" fill="none" xmlns="http://www.w3.org/2000/svg">
<g clip-path="url(#clip0_17_40)">
<path d="M16.6056 20.0625H52.2113V14.7449C52.311 13.4265 51.5733 13.0987 50.6758 13.0494C50.1608 13.0188 49.587 13.0154 49.0693 13.0477H28.5548C23.6328 13.0477 22.6574 9.81295 21.7298 6.7396C21.2012 4.98632 20.6971 3.31289 18.6356 3.31289H4.37645C3.45297 3.31289 2.69206 4.25919 2.69206 5.40765V48.3971L11.0853 24.6207C11.9732 22.1029 14.3817 20.0625 16.6056 20.0625V20.0625ZM54.8752 20.0625H66.6303C69.2409 20.0625 70.6903 22.8284 69.6125 25.8881L69.6166 25.8898L59.539 54.4418C58.651 56.9613 56.2412 59 54.0186 59H3.99394C2.94889 59 2.10328 58.5651 1.52406 57.8549C0.677089 56.9732 0.0281982 54.9447 0.0281982 53.5991V5.40765C0.0281982 2.43115 1.98307 0 4.37645 0H18.6356C22.5317 0 23.3555 2.72846 24.2175 5.58774C24.8267 7.60775 25.4674 9.7331 28.5548 9.7331C35.5491 9.7331 42.5544 9.78916 49.5474 9.7365C49.9641 9.7314 50.3917 9.7263 50.7906 9.74839C53.0323 9.87751 55.0008 10.6658 54.8724 14.7449L54.8752 20.0625V20.0625ZM66.6194 23.299H16.5947C15.4117 23.299 13.9992 24.5595 13.5292 25.8898L3.45161 54.4418L3.44751 54.4401C3.16746 55.2352 3.24806 55.7653 4.00351 55.7653H54.0295C55.2126 55.7653 56.6237 54.503 57.0937 53.1727L67.1713 24.6207C67.1809 24.6258 67.73 23.299 66.6194 23.299V23.299Z" fill="black"/>
</g>
<defs>
<clipPath id="clip0_17_40">
<rect width="70" height="59" fill="white"/>
</clipPath>
</defs>
</svg>
