<svg width="65" height="65" viewBox="0 0 65 65" fill="none" xmlns="http://www.w3.org/2000/svg">
<path d="M32.5 3.90002C23.8723 3.90002 16.9 10.8723 16.9 19.5V26H11.7C9.56213 26 7.80002 27.7621 7.80002 29.9V61.1C7.80002 63.2378 9.56213 65 11.7 65H53.3C55.4379 65 57.2 63.2378 57.2 61.1V29.9C57.2 27.7621 55.4379 26 53.3 26H48.1V19.5C48.1 10.8723 41.1278 3.90002 32.5 3.90002ZM32.5 6.50002C39.7363 6.50002 45.5 12.2637 45.5 19.5V26H19.5V19.5C19.5 12.2637 25.2637 6.50002 32.5 6.50002ZM11.7 28.6H53.3C54.0211 28.6 54.6 29.1789 54.6 29.9V61.1C54.6 61.8211 54.0211 62.4 53.3 62.4H11.7C10.9789 62.4 10.4 61.8211 10.4 61.1V29.9C10.4 29.1789 10.9789 28.6 11.7 28.6ZM32.5 39C30.291 39 28.6 40.691 28.6 42.9C28.6 44.0679 29.118 45.0937 29.9 45.7437V49.4C29.9 50.832 31.068 52 32.5 52C33.9321 52 35.1 50.832 35.1 49.4V45.7437C35.8821 45.0937 36.4 44.0679 36.4 42.9C36.4 40.691 34.709 39 32.5 39Z" fill="black"/>
</svg>
