<svg width="48" height="75" viewBox="0 0 48 75" fill="none" xmlns="http://www.w3.org/2000/svg">
<path d="M43.4 2.3291C46.3627 5.83043 47.844 7.91777 47.844 8.5911C47.844 9.26443 47.5073 10.0051 46.834 10.8131C43.6693 14.3818 39.966 17.9841 35.724 21.6201C34.7813 22.4281 34.0743 22.8321 33.603 22.8321C32.9297 22.8321 32.593 22.3271 32.593 21.3171C32.593 20.2398 33.0307 18.8258 33.906 17.0751C34.8487 15.3244 35.32 14.3144 35.32 14.0451C35.32 13.7758 35.1853 13.6411 34.916 13.6411C34.714 13.6411 34.411 13.7084 34.007 13.8431C26.2637 16.6038 20.877 20.9468 17.847 26.8721C17.1737 28.2188 16.837 29.3298 16.837 30.2051C16.837 31.9558 18.1837 33.6054 20.877 35.1541C21.281 35.4234 23.099 36.3998 26.331 38.0831C32.8623 41.5844 36.9697 44.4124 38.653 46.5671C41.3463 49.9338 42.693 53.2331 42.693 56.4651C42.693 57.7444 42.3227 59.0911 41.582 60.5051C40.9087 61.8518 40.0333 62.8618 38.956 63.5351C27.5767 70.6051 17.443 74.1401 8.555 74.1401C3.84167 74.1401 1.485 71.9854 1.485 67.6761C1.485 66.2621 1.95633 64.9154 2.899 63.6361C1.283 62.4914 0.475 61.2794 0.475 60.0001C0.475 58.6534 1.384 57.3068 3.202 55.9601C7.51133 52.7281 14.4467 51.1121 24.008 51.1121C25.018 51.1121 26.23 51.4824 27.644 52.2231C29.058 52.8964 30.2027 53.6371 31.078 54.4451C32.7613 53.5024 33.603 52.6608 33.603 51.9201C33.603 51.1794 33.1653 50.4388 32.29 49.6981C31.0107 48.7554 28.6203 47.5098 25.119 45.9611C21.685 44.4124 19.4967 43.3688 18.554 42.8301C15.726 41.2141 13.5377 38.8911 11.989 35.8611C10.5077 32.8311 9.767 29.6328 9.767 26.2661C9.767 22.8321 10.6087 19.7348 12.292 16.9741C14.0427 14.1461 16.4667 11.6884 19.564 9.6011C24.2773 6.43643 30.169 3.5411 37.239 0.915098C38.1817 0.645769 38.9223 0.511104 39.461 0.511104C41.0097 0.511104 42.3227 1.1171 43.4 2.3291ZM24.21 58.2831C23.5367 58.1484 22.7623 58.0811 21.887 58.0811C21.0117 58.0811 19.2947 58.4851 16.736 59.2931C14.2447 60.1011 12.999 61.0101 12.999 62.0201C12.999 62.4241 13.2347 62.6261 13.706 62.6261C15.524 62.6261 19.0253 61.1784 24.21 58.2831Z" fill="#49111C"/>
</svg>
