<svg width="66" height="76" viewBox="0 0 66 76" fill="none" xmlns="http://www.w3.org/2000/svg">
<g clip-path="url(#clip0_16_38)">
<path fill-rule="evenodd" clip-rule="evenodd" d="M60.2698 21.1127L65.0715 23.2864C65.3769 23.425 65.6179 23.6862 65.7415 24.0127C65.8651 24.3392 65.8613 24.7043 65.7308 25.0278L64.5639 27.8436L57.4868 24.6264L58.6536 21.8105C58.7846 21.4873 59.0314 21.2322 59.3399 21.1014C59.6484 20.9706 59.9933 20.9747 60.299 21.1127H60.2698ZM5.18098 4.866H9.95939V1.68581C9.98399 1.25554 10.1628 0.851428 10.4594 0.555972C10.7559 0.260516 11.1478 0.0959947 11.5551 0.0959947C11.9624 0.0959947 12.3543 0.260516 12.6509 0.555972C12.9474 0.851428 13.1262 1.25554 13.1508 1.68581V4.866H20.1522V1.68581C20.1522 1.2387 20.32 0.809912 20.6187 0.493762C20.9174 0.177611 21.3225 0 21.745 0C22.1674 0 22.5725 0.177611 22.8712 0.493762C23.17 0.809912 23.3378 1.2387 23.3378 1.68581V4.866H30.3391V1.68581C30.3391 1.2387 30.5069 0.809912 30.8056 0.493762C31.1043 0.177611 31.5095 0 31.9319 0C32.3543 0 32.7595 0.177611 33.0582 0.493762C33.3569 0.809912 33.5247 1.2387 33.5247 1.68581V4.866H40.526V1.68581C40.526 1.2387 40.6938 0.809912 40.9926 0.493762C41.2913 0.177612 41.6964 1.00482e-07 42.1188 1.00482e-07C42.5413 1.00482e-07 42.9464 0.177612 43.2451 0.493762C43.5438 0.809912 43.7116 1.2387 43.7116 1.68581V4.866H49.1202C50.4928 4.87088 51.808 5.45017 52.7786 6.47747C53.7492 7.50477 54.2965 8.89669 54.3011 10.3495V17.6238C53.8822 18.1675 53.5366 18.7702 53.2743 19.4146L52.1074 22.2304C52.0336 22.4652 51.9732 22.7044 51.9265 22.9468C51.801 23.1764 51.688 23.4135 51.5881 23.6569L51.2381 24.5214V10.3495C51.235 9.76419 51.014 9.20378 50.6229 8.78989C50.2319 8.37601 49.7024 8.14205 49.1493 8.13881H43.7583V11.319C43.7583 11.7661 43.5905 12.1949 43.2918 12.511C42.9931 12.8272 42.5879 13.0048 42.1655 13.0048C41.7431 13.0048 41.3379 12.8272 41.0392 12.511C40.7405 12.1949 40.5727 11.7661 40.5727 11.319V8.13881H33.5714V11.319C33.5714 11.7661 33.4036 12.1949 33.1049 12.511C32.8061 12.8272 32.401 13.0048 31.9786 13.0048C31.5561 13.0048 31.151 12.8272 30.8523 12.511C30.5536 12.1949 30.3858 11.7661 30.3858 11.319V8.13881H23.3378V11.319C23.3378 11.7661 23.17 12.1949 22.8712 12.511C22.5725 12.8272 22.1674 13.0048 21.745 13.0048C21.3225 13.0048 20.9174 12.8272 20.6187 12.511C20.32 12.1949 20.1522 11.7661 20.1522 11.319V8.13881H13.1508V11.319C13.1262 11.7493 12.9474 12.1534 12.6509 12.4488C12.3543 12.7443 11.9624 12.9088 11.5551 12.9088C11.1478 12.9088 10.7559 12.7443 10.4594 12.4488C10.1628 12.1534 9.98399 11.7493 9.95939 11.319V8.13881H5.18098C4.62702 8.13881 4.09574 8.37172 3.70403 8.78631C3.31232 9.20089 3.09225 9.76319 3.09225 10.3495V67.1606C3.09378 67.747 3.31415 68.309 3.70537 68.7242C4.09658 69.1394 4.62696 69.3742 5.18098 69.3775H34.5166L34.8433 72.6441H5.18098C3.80838 72.6425 2.49236 72.0651 1.52124 71.0384C0.550116 70.0118 0.0030871 68.6195 0 67.1668L0 10.3557C0.00307568 8.90179 0.54973 7.5083 1.52052 6.47966C2.49131 5.45103 3.80731 4.87089 5.18098 4.866V4.866ZM11.8673 58.2623C11.4572 58.2623 11.0639 58.0899 10.774 57.783C10.484 57.4761 10.3211 57.0599 10.3211 56.6259C10.3211 56.1919 10.484 55.7756 10.774 55.4687C11.0639 55.1619 11.4572 54.9895 11.8673 54.9895H38.9274L37.603 58.2623H11.8673ZM11.8673 47.4682C11.4572 47.4682 11.0639 47.2958 10.774 46.9889C10.484 46.682 10.3211 46.2658 10.3211 45.8318C10.3211 45.3978 10.484 44.9815 10.774 44.6746C11.0639 44.3678 11.4572 44.1953 11.8673 44.1953H42.4631C42.7238 44.1966 42.9795 44.2712 43.204 44.4115L41.9671 47.499L11.8673 47.4682ZM11.8673 36.674C11.4572 36.674 11.0639 36.5016 10.774 36.1948C10.484 35.8879 10.3211 35.4716 10.3211 35.0376C10.3211 34.6036 10.484 34.1874 10.774 33.8805C11.0639 33.5736 11.4572 33.4012 11.8673 33.4012H42.4631C42.8731 33.4012 43.2664 33.5736 43.5563 33.8805C43.8463 34.1874 44.0092 34.6036 44.0092 35.0376C44.0092 35.4716 43.8463 35.8879 43.5563 36.1948C43.2664 36.5016 42.8731 36.674 42.4631 36.674H11.8673ZM11.8673 25.8799C11.4572 25.8799 11.0639 25.7075 10.774 25.4006C10.484 25.0938 10.3211 24.6775 10.3211 24.2435C10.3211 23.8095 10.484 23.3933 10.774 23.0864C11.0639 22.7795 11.4572 22.6071 11.8673 22.6071H42.4631C42.8731 22.6071 43.2664 22.7795 43.5563 23.0864C43.8463 23.3933 44.0092 23.8095 44.0092 24.2435C44.0092 24.6775 43.8463 25.0938 43.5563 25.4006C43.2664 25.7075 42.8731 25.8799 42.4631 25.8799H11.8673ZM47.259 70.7669L43.6475 73.8545C40.8178 76.2751 41.1036 76.9791 40.7302 73.311L40.1468 67.5435L56.9091 26.0467L64.0155 29.2701L47.259 70.7669ZM41.372 68.1054L46.0396 70.2173L43.6533 72.2489C41.7921 73.8421 41.9788 74.2991 41.7396 71.8969L41.3545 68.1054H41.372Z" fill="black"/>
</g>
<defs>
<clipPath id="clip0_16_38">
<rect width="65.83" height="75.88" fill="white"/>
</clipPath>
</defs>
</svg>
